<mxfile host="app.diagrams.net" modified="2022-07-03T23:24:22.057Z" agent="5.0 (X11)" etag="isJoMWMv91yU1vIzU-g2" version="20.0.4" type="github">
  <diagram id="_Iri2bMeiNm1vtGAWKxc" name="Page-1">
    <mxGraphModel dx="1406" dy="772" grid="1" gridSize="10" guides="1" tooltips="1" connect="1" arrows="1" fold="1" page="1" pageScale="1" pageWidth="850" pageHeight="1100" math="0" shadow="0">
      <root>
        <mxCell id="0" />
        <mxCell id="1" parent="0" />
      </root>
    </mxGraphModel>
  </diagram>
</mxfile>
